<?xml version="1.0" encoding="UTF-8"?>
<svg width="88px" height="23px" viewBox="0 0 88 23" version="1.1" xmlns="http://www.w3.org/2000/svg" xmlns:xlink="http://www.w3.org/1999/xlink">
    <title>LOGO</title>
    <g id="Page-1" stroke="none" stroke-width="1" fill="none" fill-rule="evenodd">
        <path d="M16.61,22 L16.61,16.9 L6.44,16.9 L6.44,1 L0.62,1 L0.62,22 L16.61,22 Z M28.52,22.42 C35,22.42 39.86,17.53 39.86,11.5 L39.86,11.44 C39.86,5.41 35.06,0.58 28.58,0.58 C22.1,0.58 17.24,5.47 17.24,11.5 L17.24,11.56 C17.24,17.59 22.04,22.42 28.52,22.42 Z M28.58,17.17 C25.37,17.17 23.18,14.53 23.18,11.5 L23.18,11.44 C23.18,8.41 25.31,5.83 28.52,5.83 C31.73,5.83 33.89,8.44 33.89,11.5 L33.89,11.56 C33.89,14.59 31.76,17.17 28.58,17.17 Z M53.57,22.42 C57.41,22.42 60.47,21.01 62.69,19.15 L62.69,9.73 L53.06,9.73 L53.06,13.99 L57.17,13.99 L57.17,16.54 C56.33,17.11 55.25,17.41 53.81,17.41 C50.48,17.41 48.11,14.98 48.11,11.56 L48.11,11.5 C48.11,8.29 50.45,5.77 53.48,5.77 C55.58,5.77 57.05,6.49 58.55,7.75 L61.97,3.61 C59.75,1.69 57.14,0.58 53.45,0.58 C46.97,0.58 42.17,5.38 42.17,11.5 L42.17,11.56 C42.17,17.92 47.03,22.42 53.57,22.42 Z M76.52,22.42 C83,22.42 87.86,17.53 87.86,11.5 L87.86,11.44 C87.86,5.41 83.06,0.58 76.58,0.58 C70.1,0.58 65.24,5.47 65.24,11.5 L65.24,11.56 C65.24,17.59 70.04,22.42 76.52,22.42 Z M76.58,17.17 C73.37,17.17 71.18,14.53 71.18,11.5 L71.18,11.44 C71.18,8.41 73.31,5.83 76.52,5.83 C79.73,5.83 81.89,8.44 81.89,11.5 L81.89,11.56 C81.89,14.59 79.76,17.17 76.58,17.17 Z" id="LOGO" fill="#FFFFFF" fill-rule="nonzero"></path>
    </g>
</svg>